<svg width="20" height="21" viewBox="0 0 20 21" fill="none" xmlns="http://www.w3.org/2000/svg">
<path fill-rule="evenodd" clip-rule="evenodd" d="M14.1356 15.4974C12.8151 16.6216 11.1034 17.3 9.23329 17.3C5.05434 17.3 1.66663 13.9123 1.66663 9.73333C1.66663 5.55438 5.05434 2.16667 9.23329 2.16667C13.4122 2.16667 16.8 5.55438 16.8 9.73333C16.8 11.5922 16.1297 13.2944 15.0177 14.6117L18.6497 18.2437L17.7658 19.1275L14.1356 15.4974ZM15.55 9.73333C15.55 13.2219 12.7219 16.05 9.23329 16.05C5.74469 16.05 2.91663 13.2219 2.91663 9.73333C2.91663 6.24474 5.74469 3.41667 9.23329 3.41667C12.7219 3.41667 15.55 6.24474 15.55 9.73333Z" fill="black" fill-opacity="0.7"/>
</svg>
