<svg width="20" height="21" viewBox="0 0 20 21" fill="none" xmlns="http://www.w3.org/2000/svg">
<path fill-rule="evenodd" clip-rule="evenodd" d="M14.1356 15.951C12.8151 17.0752 11.1034 17.7536 9.23329 17.7536C5.05434 17.7536 1.66663 14.3659 1.66663 10.1869C1.66663 6.00799 5.05434 2.62028 9.23329 2.62028C13.4122 2.62028 16.8 6.00799 16.8 10.1869C16.8 12.0458 16.1297 13.748 15.0177 15.0653L18.6497 18.6973L17.7658 19.5812L14.1356 15.951ZM15.55 10.1869C15.55 13.6755 12.7219 16.5036 9.23329 16.5036C5.74469 16.5036 2.91663 13.6755 2.91663 10.1869C2.91663 6.69835 5.74469 3.87028 9.23329 3.87028C12.7219 3.87028 15.55 6.69835 15.55 10.1869Z" fill="black" fill-opacity="0.7"/>
</svg>
