<svg width="20" height="20" viewBox="0 0 20 20" fill="none" xmlns="http://www.w3.org/2000/svg">
<path fill-rule="evenodd" clip-rule="evenodd" d="M14.1357 14.9974C12.8152 16.1216 11.1035 16.8 9.23335 16.8C5.0544 16.8 1.66669 13.4123 1.66669 9.23333C1.66669 5.05438 5.0544 1.66667 9.23335 1.66667C13.4123 1.66667 16.8 5.05438 16.8 9.23333C16.8 11.0922 16.1298 12.7944 15.0177 14.1117L18.6497 17.7437L17.7658 18.6275L14.1357 14.9974ZM15.55 9.23333C15.55 12.7219 12.722 15.55 9.23335 15.55C5.74475 15.55 2.91669 12.7219 2.91669 9.23333C2.91669 5.74473 5.74475 2.91667 9.23335 2.91667C12.722 2.91667 15.55 5.74473 15.55 9.23333Z" fill="black" fill-opacity="0.7"/>
</svg>
