<svg width="20" height="21" viewBox="0 0 20 21" fill="none" xmlns="http://www.w3.org/2000/svg">
<path fill-rule="evenodd" clip-rule="evenodd" d="M14.1356 15.951C12.8151 17.0752 11.1035 17.7536 9.23332 17.7536C5.05437 17.7536 1.66666 14.3659 1.66666 10.1869C1.66666 6.00798 5.05437 2.62027 9.23332 2.62027C13.4123 2.62027 16.8 6.00798 16.8 10.1869C16.8 12.0458 16.1297 13.748 15.0177 15.0653L18.6497 18.6973L17.7658 19.5812L14.1356 15.951ZM15.55 10.1869C15.55 13.6755 12.7219 16.5036 9.23332 16.5036C5.74472 16.5036 2.91666 13.6755 2.91666 10.1869C2.91666 6.69834 5.74472 3.87027 9.23332 3.87027C12.7219 3.87027 15.55 6.69834 15.55 10.1869Z" fill="black" fill-opacity="0.7"/>
</svg>
