<svg width="20" height="21" viewBox="0 0 20 21" fill="none" xmlns="http://www.w3.org/2000/svg">
<path fill-rule="evenodd" clip-rule="evenodd" d="M14.1356 15.4974C12.8151 16.6215 11.1035 17.3 9.23332 17.3C5.05437 17.3 1.66666 13.9123 1.66666 9.73332C1.66666 5.55437 5.05437 2.16666 9.23332 2.16666C13.4123 2.16666 16.8 5.55437 16.8 9.73332C16.8 11.5921 16.1297 13.2944 15.0177 14.6116L18.6497 18.2437L17.7658 19.1275L14.1356 15.4974ZM15.55 9.73332C15.55 13.2219 12.7219 16.05 9.23332 16.05C5.74472 16.05 2.91666 13.2219 2.91666 9.73332C2.91666 6.24472 5.74472 3.41666 9.23332 3.41666C12.7219 3.41666 15.55 6.24472 15.55 9.73332Z" fill="black" fill-opacity="0.7"/>
</svg>
