<svg width="24" height="25" viewBox="0 0 24 25" fill="none" xmlns="http://www.w3.org/2000/svg">
<path fill-rule="evenodd" clip-rule="evenodd" d="M12.8347 22.8907C14.2146 21.034 17.0207 17.2143 18.2009 15.288C19.1451 13.7486 20 12.0825 20 10.1248C20 5.61145 16.4178 1.95361 11.9993 1.95361C7.58223 1.95361 4 5.61145 4 10.1248C4 12.1002 4.84021 13.7936 5.82712 15.3234C7.02754 17.1875 9.8594 21.026 11.2467 22.8905C11.644 23.4245 12.4377 23.4249 12.8347 22.8907ZM12 12.9536C13.6567 12.9536 15 11.6093 15 9.95426C15 8.29792 13.6567 6.95361 12 6.95361C10.3433 6.95361 9 8.29792 9 9.95426C9 11.6093 10.3433 12.9536 12 12.9536Z" fill="black" fill-opacity="0.3"/>
</svg>
