<svg width="20" height="21" viewBox="0 0 20 21" fill="none" xmlns="http://www.w3.org/2000/svg">
<path fill-rule="evenodd" clip-rule="evenodd" d="M14.1357 15.951C12.8152 17.0752 11.1035 17.7536 9.23335 17.7536C5.0544 17.7536 1.66669 14.3659 1.66669 10.187C1.66669 6.00801 5.0544 2.6203 9.23335 2.6203C13.4123 2.6203 16.8 6.00801 16.8 10.187C16.8 12.0458 16.1298 13.7481 15.0177 15.0653L18.6497 18.6973L17.7658 19.5812L14.1357 15.951ZM15.55 10.187C15.55 13.6756 12.722 16.5036 9.23335 16.5036C5.74475 16.5036 2.91669 13.6756 2.91669 10.187C2.91669 6.69837 5.74475 3.8703 9.23335 3.8703C12.722 3.8703 15.55 6.69837 15.55 10.187Z" fill="black" fill-opacity="0.7"/>
</svg>
