<svg width="1100" height="1101" viewBox="0 0 1100 1101" fill="none" xmlns="http://www.w3.org/2000/svg">
<g clip-path="url(#clip0_1_370)">
<path d="M1271.11 462.346C1410.14 485.259 1368.89 1189.56 1141.25 1322.48C913.611 1455.4 351.389 1433.31 351.389 1258.31C351.389 1083.31 565.278 995.535 727.222 935.953C889.167 876.371 899.56 702.167 971.667 625.816C1049.58 543.314 1132.08 439.432 1271.11 462.346Z" fill="#D9D9D9"/>
<path fill-rule="evenodd" clip-rule="evenodd" d="M506.509 903.956L294.948 706.72L-35.4728 1061.5L-62.305 1036.51L172.815 784.059L86.2126 703.952L-41.5686 841.487L-68.4309 816.53L154.899 576.153L-56.1728 379.372L-56.868 380.118L-83.6936 355.122L292.14 -48.2115L318.965 -23.2149L117.75 192.724L219.744 287.433L411.89 80.2753L425.332 92.7428L233.179 299.908L328.939 388.827L592.609 105.029L403.07 -71.1751L428.035 -98.0298L617.566 78.1672L732.125 -45.1365L758.987 -20.1793L644.421 103.133L741.31 193.206L934.398 -14.4551L947.824 -1.97118L754.737 205.688L962.93 399.234L1288.24 49.5763L1315.09 74.5523L989.785 424.2L1036.09 467.248C1043.51 474.142 1043.93 485.742 1037.04 493.158C1030.14 500.574 1018.54 500.997 1011.13 494.103L964.809 451.044L868.833 554.202C868.39 555.658 867.834 557.473 867.169 559.617C865.275 565.718 862.492 574.489 858.916 585.242C851.769 606.73 841.428 636.21 828.654 668.144C803.515 730.991 767.606 806.914 726.436 848.083C685.77 888.75 639.312 901.013 596.537 912.304L596.406 912.339C594.847 912.75 593.293 913.161 591.744 913.571C547.307 925.345 505.755 937.376 466.714 976.417L251.297 1191.83L225.37 1165.91L440.787 950.49C462.216 929.06 484.41 914.544 506.509 903.956ZM937.954 426.079L729.769 232.541L638.989 330.173L847 523.839L937.954 426.079ZM829.383 557.535L799.087 529.328L501.609 849.258L544.165 888.933L543.959 889.154C557.03 884.888 569.891 881.429 582.353 878.127L584.817 877.475C629.055 865.762 666.932 855.734 700.509 822.156C735.728 786.937 769.332 717.721 794.61 654.526C807.045 623.44 817.138 594.673 824.123 573.67C826.145 567.59 827.905 562.167 829.383 557.535ZM785.669 516.835L617.56 360.321L395.072 599.213L564.359 754.848L785.669 516.835ZM625.57 317.68L716.342 220.058L619.463 129.995L528.798 227.581L625.57 317.68ZM503.841 254.444L590.724 335.335L524.745 406.18L438.587 324.679L503.841 254.444ZM426.108 338.111L512.25 419.596L360.577 582.452L273.648 502.209L426.108 338.111ZM261.169 515.64L348.082 595.868L293.119 654.884L206.675 574.294L261.169 515.64ZM181.718 601.156L268.129 681.716L197.804 757.226L111.17 677.089L181.718 601.156ZM382.577 612.63L319.938 679.888L488.199 836.756L551.875 768.274L382.577 612.63ZM316.46 402.258L179.856 549.29L33.574 412.913L170.061 266.316L316.46 402.258ZM156.626 253.841L20.1643 400.411L-31.1762 352.547L105.252 206.136L156.626 253.841Z" fill="white"/>
</g>
<defs>
<clipPath id="clip0_1_370">
<rect width="1100" height="1100" fill="white" transform="translate(0 0.953613)"/>
</clipPath>
</defs>
</svg>
