<?xml version="1.0" encoding="UTF-8"?>
<svg id="Layer_1" data-name="Layer 1" xmlns="http://www.w3.org/2000/svg" xmlns:xlink="http://www.w3.org/1999/xlink" viewBox="0 0 375 375">
  <defs>
    <style>
      .cls-1, .cls-2 {
        fill: none;
      }

      .cls-1, .cls-3, .cls-4, .cls-5 {
        stroke-width: 0px;
      }

      .cls-6 {
        clip-path: url(#clippath-1);
      }

      .cls-2 {
        stroke-width: 4px;
      }

      .cls-2, .cls-7 {
        stroke: #000;
        stroke-miterlimit: 10;
      }

      .cls-3 {
        fill: #009fb7;
      }

      .cls-8 {
        clip-path: url(#clippath);
      }

      .cls-7 {
        fill: #fe4a49;
        font-family: PeaceSans, 'Peace Sans';
        font-size: 48px;
        stroke-width: 1.5px;
      }

      .cls-4 {
        fill: #fff;
      }

      .cls-5 {
        fill: #fe4a49;
      }
    </style>
    <clipPath id="clippath">
      <rect class="cls-1" y="-8.04" width="375" height="375"/>
    </clipPath>
    <clipPath id="clippath-1">
      <rect class="cls-1" x="99.18" y="55.97" width="177" height="154.5"/>
    </clipPath>
  </defs>
  <g class="cls-8">
    <rect class="cls-4" y="-8.04" width="375" height="375"/>
  </g>
  <rect class="cls-3" width="375" height="375"/>
  <g class="cls-6">
    <path class="cls-2" d="M159.58,59.05c6.89-3.06,14.5-.96,21.01,2.25,7.27,3.8,14.69,9.32,17.67,17.99,1.34,3.54.46,7.67-1.84,10.44-1.81,1.72-4.38,1.24-6.55,1-4.92-1.17-7.93-6.04-11.75-9.22-3.31-3.24-6.84-6.75-11.32-7.65-4-.73-7.48,2.21-10.04,5.26-3.86,5.29-6.3,11.65-8.2,18.08-1.23,5.6-3.86,10.95-3.55,16.86-.38-5.45-1.77-10.76-1.91-16.24-.25-7.06.56-14.17,2.15-21,2.93-7.32,7.45-14.57,14.32-17.76h0Z"/>
    <path class="cls-5" d="M159.58,59.05c6.89-3.06,14.5-.96,21.01,2.25,7.27,3.8,14.69,9.32,17.67,17.99,1.34,3.54.46,7.67-1.84,10.44-1.81,1.72-4.38,1.24-6.55,1-4.92-1.17-7.93-6.04-11.75-9.22-3.31-3.24-6.84-6.75-11.32-7.65-4-.73-7.48,2.21-10.04,5.26-3.86,5.29-6.3,11.65-8.2,18.08-1.23,5.6-3.86,10.95-3.55,16.86-.38-5.45-1.77-10.76-1.91-16.24-.25-7.06.56-14.17,2.15-21,2.93-7.32,7.45-14.57,14.32-17.76h0Z"/>
    <path class="cls-2" d="M222.36,63.73c4.99-.64,10.23,1.53,13.57,5.7,2.27,3.11,3.79,7.02,3.77,11.06-.44,4.92-2.66,9.77-6.38,12.6-4.38,3.45-10.36,4.17-15.28,1.78-7.32-3.09-11.58-13.56-7.82-21.47,2.12-5.38,6.99-8.88,12.13-9.67h0Z"/>
    <path class="cls-5" d="M222.36,63.73c4.99-.64,10.23,1.53,13.57,5.7,2.27,3.11,3.79,7.02,3.77,11.06-.44,4.92-2.66,9.77-6.38,12.6-4.38,3.45-10.36,4.17-15.28,1.78-7.32-3.09-11.58-13.56-7.82-21.47,2.12-5.38,6.99-8.88,12.13-9.67h0Z"/>
    <path class="cls-2" d="M274.26,92.3c.29-.02.59-.03.89-.02-.13,2.92.56,5.83.13,8.73-.69,4.99-2.5,9.68-4.46,14.2-4.3,10.67-12.44,19.48-22.3,23.63-4.53,1.78-9.9,1.64-13.98-1.39-6.6-4.79-11.79-12.1-14.06-20.53-1.44-4.55-1.49-10.03.98-14.15,1.24-1.81,2.9-3.83,5.14-3.69,2.31.24,4.37,1.78,5.76,3.78,3.28,4.79,3.97,11.01,6.67,16.12,2.26,3.3,5.92,7.21,9.96,5.28,4.87-2.29,8.97-6.19,12.93-10.01,5.01-4.79,8.5-11.18,11.28-17.77.56-1.32.95-2.73,1.06-4.19h0Z"/>
    <path class="cls-5" d="M274.26,92.3c.29-.02.59-.03.89-.02-.13,2.92.56,5.83.13,8.73-.69,4.99-2.5,9.68-4.46,14.2-4.3,10.67-12.44,19.48-22.3,23.63-4.53,1.78-9.9,1.64-13.98-1.39-6.6-4.79-11.79-12.1-14.06-20.53-1.44-4.55-1.49-10.03.98-14.15,1.24-1.81,2.9-3.83,5.14-3.69,2.31.24,4.37,1.78,5.76,3.78,3.28,4.79,3.97,11.01,6.67,16.12,2.26,3.3,5.92,7.21,9.96,5.28,4.87-2.29,8.97-6.19,12.93-10.01,5.01-4.79,8.5-11.18,11.28-17.77.56-1.32.95-2.73,1.06-4.19h0Z"/>
    <path class="cls-2" d="M152.54,122.91c2.9-2.73,7.18-2.46,10.55-1.1,3.39,1.6,6.95,2.84,10.04,5.11,4.8,3.42,9.39,7.25,13.49,11.66,4.64,4.17,8.94,8.82,12.63,14.03,2.72,3.56,5.57,7.72,5.35,12.65-2.01,7.19-7.55,12.44-13.31,15.96-7.64,4.32-16.16,6.03-24.33,8.68-3.53,1.27-7.24,1.73-10.91,2.17-4.16.25-8.34,1.2-12.5.39,2.66-2.15,5.89-3.11,8.81-4.7,8.41-4.03,16.32-9.21,24.51-13.74,3.47-1.87,6.87-4.25,8.85-8.05-.11-.84-.21-1.67-.31-2.5-2.33-2.62-5.21-4.5-8.18-6.09-3.46,3.18-7.45,5.6-10.64,9.15-8.75,7.24-18.42,12.92-27.74,19.18-12.54,7.84-24.41,16.98-37.2,24.35-.74.3-1.51.53-2.29.69,4.91-5.95,10.63-11.01,15.46-17.04,6.97-8.12,13.95-16.25,21.23-24.04,7.69-8.23,15.16-16.7,22.28-25.53-3-3.09-6.88-5.93-7.8-10.67-.87-3.58-.36-7.81,2-10.58h0Z"/>
    <path class="cls-5" d="M152.54,122.91c2.9-2.73,7.18-2.46,10.55-1.1,3.39,1.6,6.95,2.84,10.04,5.11,4.8,3.42,9.39,7.25,13.49,11.66,4.64,4.17,8.94,8.82,12.63,14.03,2.72,3.56,5.57,7.72,5.35,12.65-2.01,7.19-7.55,12.44-13.31,15.96-7.64,4.32-16.16,6.03-24.33,8.68-3.53,1.27-7.24,1.73-10.91,2.17-4.16.25-8.34,1.2-12.5.39,2.66-2.15,5.89-3.11,8.81-4.7,8.41-4.03,16.32-9.21,24.51-13.74,3.47-1.87,6.87-4.25,8.85-8.05-.11-.84-.21-1.67-.31-2.5-2.33-2.62-5.21-4.5-8.18-6.09-3.46,3.18-7.45,5.6-10.64,9.15-8.75,7.24-18.42,12.92-27.74,19.18-12.54,7.84-24.41,16.98-37.2,24.35-.74.3-1.51.53-2.29.69,4.91-5.95,10.63-11.01,15.46-17.04,6.97-8.12,13.95-16.25,21.23-24.04,7.69-8.23,15.16-16.7,22.28-25.53-3-3.09-6.88-5.93-7.8-10.67-.87-3.58-.36-7.81,2-10.58h0Z"/>
  </g>
  <text class="cls-7" transform="translate(47.19 253.72)"><tspan x="0" y="0">SPORTERS</tspan></text>
  <text class="cls-7" transform="translate(51.19 301.83)"><tspan x="0" y="0">CONNECT</tspan></text>
</svg>